<svg width="156" height="32" viewBox="0 0 156 32" fill="none" xmlns="http://www.w3.org/2000/svg">
<path d="M34.4314 19.4312L33.8595 17.3032H30.8139L30.242 19.4312H28.4199L31.2793 10.2411H33.4472L36.2933 19.4312H34.4314ZM31.1597 15.9732H33.5004L32.33 11.5844L31.1597 15.9732Z" fill="#CEDFEC"/>
<path d="M41.3074 15.5876C42.5132 15.7206 43.1162 16.2836 43.1162 17.2766C43.1162 18.0037 42.8369 18.5445 42.2783 18.8992C41.7286 19.2538 40.9838 19.4312 40.0439 19.4312H37.2643V12.4754C38.213 12.2892 39.0686 12.1961 39.8311 12.1961C40.7444 12.1961 41.4626 12.3602 41.9857 12.6882C42.5088 13.0163 42.7704 13.4906 42.7704 14.1113C42.7704 14.5103 42.6462 14.8339 42.398 15.0822C42.1497 15.3304 41.7862 15.4989 41.3074 15.5876ZM39.8178 13.3532C39.5784 13.3532 39.2947 13.3754 38.9667 13.4197V15.2019H39.9774C40.7133 15.2019 41.0813 14.8871 41.0813 14.2576C41.0813 13.6547 40.6601 13.3532 39.8178 13.3532ZM40.004 18.2475C40.8995 18.2475 41.3473 17.8884 41.3473 17.1702C41.3473 16.8422 41.2453 16.6028 41.0414 16.452C40.8375 16.2924 40.5006 16.2126 40.0306 16.2126H38.9667V18.2475H40.004Z" fill="#CEDFEC"/>
<path d="M49.6202 12.3956L49.4074 13.699H47.346V19.4312H45.6436V13.699H43.4625V12.3956H49.6202Z" fill="#CEDFEC"/>
<path d="M53.138 12.1961C54.1753 12.1961 54.9822 12.5286 55.5585 13.1936C56.1437 13.8497 56.4363 14.7541 56.4363 15.9067C56.4363 16.6427 56.3033 17.2943 56.0373 17.8618C55.7713 18.4204 55.39 18.8548 54.8935 19.1652C54.397 19.4755 53.8074 19.6307 53.1247 19.6307C52.0873 19.6307 51.276 19.3026 50.6908 18.6465C50.1056 17.9815 49.8131 17.0683 49.8131 15.9067C49.8131 15.1708 49.946 14.5236 50.212 13.965C50.478 13.4064 50.8593 12.972 51.3558 12.6616C51.8612 12.3513 52.4553 12.1961 53.138 12.1961ZM53.138 13.4862C52.1183 13.4862 51.6085 14.2931 51.6085 15.9067C51.6085 16.7402 51.7326 17.3564 51.9809 17.7554C52.238 18.1455 52.6193 18.3406 53.1247 18.3406C53.6301 18.3406 54.0069 18.1411 54.2551 17.7421C54.5123 17.3431 54.6408 16.7313 54.6408 15.9067C54.6408 15.0822 54.5123 14.4748 54.2551 14.0847C54.0069 13.6857 53.6345 13.4862 53.138 13.4862Z" fill="#CEDFEC"/>
<path d="M63.8706 12.3956L61.8889 15.6541L64.0834 19.4312H62.2081L60.4925 16.3057H59.7344V19.4312H58.032V12.3956H59.7344V15.1753H60.5324L62.1682 12.3956H63.8706Z" fill="#CEDFEC"/>
<path d="M67.8793 12.1961C68.9167 12.1961 69.7235 12.5286 70.2998 13.1936C70.885 13.8497 71.1776 14.7541 71.1776 15.9067C71.1776 16.6427 71.0446 17.2943 70.7786 17.8618C70.5126 18.4204 70.1314 18.8548 69.6349 19.1652C69.1383 19.4755 68.5487 19.6307 67.866 19.6307C66.8286 19.6307 66.0173 19.3026 65.4322 18.6465C64.847 17.9815 64.5544 17.0683 64.5544 15.9067C64.5544 15.1708 64.6874 14.5236 64.9534 13.965C65.2194 13.4064 65.6006 12.972 66.0971 12.6616C66.6025 12.3513 67.1966 12.1961 67.8793 12.1961ZM67.8793 13.4862C66.8597 13.4862 66.3498 14.2931 66.3498 15.9067C66.3498 16.7402 66.474 17.3564 66.7222 17.7554C66.9794 18.1455 67.3606 18.3406 67.866 18.3406C68.3714 18.3406 68.7482 18.1411 68.9965 17.7421C69.2536 17.3431 69.3822 16.7313 69.3822 15.9067C69.3822 15.0822 69.2536 14.4748 68.9965 14.0847C68.7482 13.6857 68.3758 13.4862 67.8793 13.4862Z" fill="#CEDFEC"/>
<path d="M78.7081 18.1411V21.5325H77.4713L77.2452 19.4312H73.0824L72.8563 21.5325H71.6194V18.1411H72.0849C72.2711 18.017 72.4174 17.8662 72.5238 17.6889C72.6391 17.5027 72.741 17.1924 72.8297 16.7579C72.9272 16.3235 73.007 15.6984 73.0691 14.8827L73.2553 12.3956H77.9767V18.1411H78.7081ZM76.3408 13.5926H74.7448L74.6517 14.7098C74.5897 15.4723 74.5143 16.0708 74.4256 16.5052C74.337 16.9397 74.2173 17.281 74.0666 17.5293C73.9158 17.7687 73.7075 17.9726 73.4415 18.1411H76.3408V13.5926Z" fill="#CEDFEC"/>
<path d="M84.3565 10.5281C85.181 10.5281 85.8948 10.7143 86.4977 11.0867C87.1006 11.4591 87.5617 12.0044 87.8809 12.7226C88.2089 13.4408 88.373 14.3053 88.373 15.316C88.373 16.3179 88.2089 17.178 87.8809 17.8962C87.5528 18.6143 87.0873 19.1641 86.4844 19.5453C85.8815 19.9266 85.1722 20.1172 84.3565 20.1172C83.5319 20.1172 82.8181 19.931 82.2152 19.5586C81.6123 19.1862 81.1468 18.6409 80.8187 17.9228C80.4907 17.2046 80.3267 16.3401 80.3267 15.3293C80.3267 14.3363 80.4907 13.4807 80.8187 12.7625C81.1468 12.0354 81.6123 11.4813 82.2152 11.1C82.827 10.7188 83.5407 10.5281 84.3565 10.5281ZM84.3565 11.8714C83.6471 11.8714 83.1063 12.1507 82.7339 12.7093C82.3615 13.259 82.1753 14.1324 82.1753 15.3293C82.1753 17.6257 82.9024 18.7739 84.3565 18.7739C85.0658 18.7739 85.6022 18.4991 85.9657 17.9494C86.3381 17.3996 86.5243 16.5219 86.5243 15.316C86.5243 14.1191 86.3381 13.2457 85.9657 12.696C85.6022 12.1463 85.0658 11.8714 84.3565 11.8714Z" fill="#CEDFEC"/>
<path d="M93.4056 13.3477C93.911 13.3477 94.3632 13.4762 94.7622 13.7334C95.1612 13.9905 95.4715 14.3673 95.6932 14.8638C95.9237 15.3515 96.039 15.9322 96.039 16.6061C96.039 17.3331 95.9015 17.9627 95.6267 18.4946C95.3607 19.0178 94.9839 19.4212 94.4962 19.7049C94.0086 19.9798 93.4411 20.1172 92.7938 20.1172C91.7919 20.1172 90.994 19.7803 90.3999 19.1064C89.8147 18.4237 89.5221 17.3908 89.5221 16.0076C89.5221 14.988 89.6019 14.1501 89.7615 13.494C89.93 12.8379 90.2181 12.3014 90.626 11.8847C91.0339 11.4591 91.6057 11.1266 92.3417 10.8872C92.8825 10.7099 93.3081 10.5547 93.6184 10.4218C93.9288 10.2799 94.2657 10.0981 94.6292 9.87646L95.2809 11.0202C94.9706 11.2242 94.6425 11.4059 94.2967 11.5655C93.9509 11.7163 93.5342 11.8714 93.0465 12.031C92.6387 12.164 92.3106 12.3192 92.0624 12.4965C91.823 12.6738 91.6323 12.9265 91.4905 13.2546C91.3486 13.5738 91.2511 14.0082 91.1979 14.5579C91.721 13.7511 92.4569 13.3477 93.4056 13.3477ZM92.7805 18.8271C93.2327 18.8271 93.5874 18.6675 93.8445 18.3484C94.1105 18.0203 94.2435 17.4573 94.2435 16.6593C94.2435 15.9234 94.1371 15.4047 93.9243 15.1032C93.7115 14.7929 93.3923 14.6377 92.9667 14.6377C92.6387 14.6377 92.3284 14.7264 92.0358 14.9037C91.752 15.0811 91.5126 15.3515 91.3176 15.715V16.6061C91.3176 17.3331 91.4461 17.8873 91.7033 18.2686C91.9604 18.6409 92.3195 18.8271 92.7805 18.8271Z" fill="#CEDFEC"/>
<path d="M100.89 15.1032C101.99 15.1032 102.792 15.3116 103.298 15.7283C103.803 16.1362 104.056 16.7302 104.056 17.5105C104.056 18.2996 103.785 18.8981 103.244 19.3059C102.704 19.7138 102.012 19.9177 101.17 19.9177H98.4965V14.1191H96.3153V12.8822H100.199V15.1032H100.89ZM100.997 18.734C101.857 18.734 102.287 18.3173 102.287 17.4839C102.287 17.0672 102.181 16.7613 101.968 16.5662C101.755 16.3623 101.391 16.2603 100.877 16.2603H100.199V18.734H100.997Z" fill="#CEDFEC"/>
<path d="M110.659 12.8822V19.9177H108.957V17.3509H107.773L106.403 19.9177H104.554L106.204 16.9652C105.831 16.779 105.543 16.5307 105.339 16.2204C105.144 15.9012 105.046 15.5288 105.046 15.1032C105.046 14.3762 105.312 13.8265 105.844 13.4541C106.376 13.0728 107.139 12.8822 108.132 12.8822H110.659ZM108.957 16.247V14.0393H108.105C107.236 14.0393 106.802 14.3984 106.802 15.1165C106.802 15.4978 106.904 15.7815 107.108 15.9677C107.312 16.1539 107.635 16.247 108.079 16.247H108.957Z" fill="#CEDFEC"/>
<path d="M116.746 16.0741C117.952 16.2071 118.555 16.7701 118.555 17.7632C118.555 18.4902 118.276 19.0311 117.717 19.3857C117.167 19.7404 116.423 19.9177 115.483 19.9177H112.703V12.962C113.652 12.7758 114.508 12.6827 115.27 12.6827C116.183 12.6827 116.901 12.8467 117.425 13.1748C117.948 13.5028 118.209 13.9772 118.209 14.5978C118.209 14.9968 118.085 15.3205 117.837 15.5687C117.589 15.817 117.225 15.9854 116.746 16.0741ZM115.257 13.8398C115.017 13.8398 114.734 13.8619 114.406 13.9063V15.6884H115.416C116.152 15.6884 116.52 15.3737 116.52 14.7441C116.52 14.1412 116.099 13.8398 115.257 13.8398ZM115.443 18.734C116.338 18.734 116.786 18.375 116.786 17.6568C116.786 17.3287 116.684 17.0893 116.48 16.9386C116.276 16.779 115.939 16.6992 115.47 16.6992H114.406V18.734H115.443Z" fill="#CEDFEC"/>
<path d="M125.588 12.8822V19.9177H123.886V14.1723H122.17L121.997 16.0608C121.908 17.0539 121.802 17.7986 121.678 18.2952C121.554 18.7917 121.345 19.1774 121.053 19.4522C120.769 19.7182 120.33 19.9266 119.736 20.0773L119.311 18.8138C119.603 18.6897 119.812 18.5523 119.936 18.4015C120.069 18.242 120.162 17.9937 120.215 17.6568C120.277 17.3198 120.339 16.748 120.401 15.9411L120.641 12.8822H125.588Z" fill="#CEDFEC"/>
<path d="M133.411 16.2337C133.411 16.3224 133.398 16.5529 133.372 16.9253H128.956C129.009 17.608 129.187 18.0957 129.488 18.3883C129.789 18.6808 130.188 18.8271 130.685 18.8271C130.995 18.8271 131.288 18.7784 131.563 18.6808C131.838 18.5744 132.13 18.4148 132.441 18.2021L133.145 19.1729C132.365 19.8024 131.496 20.1172 130.539 20.1172C129.466 20.1172 128.637 19.7891 128.052 19.133C127.475 18.4769 127.187 17.5814 127.187 16.4465C127.187 15.7283 127.311 15.0855 127.56 14.518C127.808 13.9417 128.167 13.494 128.637 13.1748C129.107 12.8467 129.665 12.6827 130.313 12.6827C131.297 12.6827 132.059 12.9975 132.6 13.627C133.141 14.2476 133.411 15.1165 133.411 16.2337ZM131.722 15.7416C131.722 14.5092 131.266 13.893 130.353 13.893C129.936 13.893 129.608 14.0481 129.368 14.3585C129.138 14.6599 129 15.1476 128.956 15.8214H131.722V15.7416Z" fill="#CEDFEC"/>
<path d="M139.022 19.9177V16.9785H136.641V19.9177H134.939V12.8822H136.641V15.6884H139.022V12.8822H140.724V19.9177H139.022Z" fill="#CEDFEC"/>
<path d="M148.635 19.9177H147V17.0982C147 16.5839 147.022 16.1007 147.066 15.6485C147.11 15.1875 147.159 14.8417 147.212 14.6111L144.592 19.9177H142.77V12.8822H144.42V15.7017C144.42 16.1894 144.393 16.6726 144.34 17.1514C144.295 17.6302 144.247 17.9715 144.193 18.1755L146.787 12.8822H148.635V19.9177Z" fill="#CEDFEC"/>
<path d="M156 12.8822V19.9177H154.298V17.3509H153.114L151.744 19.9177H149.895L151.544 16.9652C151.172 16.779 150.884 16.5307 150.68 16.2204C150.485 15.9012 150.387 15.5288 150.387 15.1032C150.387 14.3762 150.653 13.8265 151.185 13.4541C151.717 13.0728 152.48 12.8822 153.473 12.8822H156ZM154.298 16.247V14.0393H153.446C152.577 14.0393 152.143 14.3984 152.143 15.1165C152.143 15.4978 152.245 15.7815 152.449 15.9677C152.653 16.1539 152.976 16.247 153.42 16.247H154.298Z" fill="#CEDFEC"/>
<path d="M0.895481 17.8798L1.96391 16.8114C2.5311 16.2442 3.44125 16.2442 3.99525 16.8114C4.56244 17.3786 4.56244 18.2887 3.99525 18.8427L2.92682 19.9111C2.35963 20.4783 1.44948 20.4783 0.895481 19.9111C0.34148 19.344 0.34148 18.4338 0.895481 17.8798Z" fill="#CEDFEC"/>
<path d="M23.8736 11.5746C23.5966 11.3504 23.28 11.1789 22.9371 11.0997C22.5941 11.0074 22.238 11.0074 21.8818 11.0734C21.7895 11.0866 21.684 11.1261 21.5916 11.1393L20.5628 9.7675C20.4836 9.6356 20.3913 9.53008 20.2726 9.43774C20.1539 9.34541 20.0088 9.29264 19.8637 9.26626C18.2017 9.08159 16.5265 8.98926 14.8513 8.97607H14.7062C13.1497 8.98926 11.6064 9.08159 10.0631 9.26626C9.91805 9.27945 9.77296 9.33222 9.64106 9.42455C9.52234 9.51689 9.41681 9.6356 9.35085 9.7675L8.29561 11.1393C8.20328 11.1261 8.08457 11.0866 8.00543 11.0734C7.66248 11.0074 7.29314 11.0074 6.95019 11.0997C6.60724 11.1921 6.29067 11.3504 6.01367 11.5746C5.68391 11.8384 5.51242 12.1682 5.52561 12.4584C5.52561 12.5903 5.552 12.709 5.61795 12.8145C5.67072 12.9332 5.74985 13.0255 5.85537 13.1047C6.0928 13.263 6.383 13.3421 6.67319 13.3421C6.60724 13.4345 6.5281 13.54 6.46215 13.6455C6.106 14.2391 6.15875 14.859 6.18514 15.2547C6.18514 15.3471 6.19834 15.413 6.19834 15.4922V18.6843C6.19834 18.8294 6.22471 18.9745 6.29067 19.1196C6.34343 19.2515 6.43576 19.3834 6.54129 19.4757L6.5281 19.9506C6.51491 20.122 6.54129 20.2935 6.60724 20.4518C6.67319 20.6101 6.76552 20.7552 6.88424 20.8739C7.00295 20.9926 7.13485 21.0981 7.29314 21.1641C7.45143 21.2301 7.60972 21.2564 7.7812 21.2564H10.3797C10.4852 21.2564 10.5908 21.23 10.6963 21.1905C10.8018 21.1509 10.8941 21.0849 10.9601 21.0058C11.0392 20.9267 11.1052 20.8343 11.1448 20.742C11.1843 20.6365 11.2107 20.5309 11.2107 20.4254V20.1748C12.0549 20.2144 12.4374 20.2276 12.5166 20.2408C12.7012 20.2803 13.5322 20.2935 15.1151 20.2935C16.698 20.2935 17.186 20.2935 17.3707 20.2408C17.4366 20.2276 17.8191 20.2012 18.6765 20.1748V20.4254C18.6765 20.5309 18.7029 20.6365 18.7425 20.742C18.7821 20.8475 18.848 20.9398 18.9272 21.0058C19.0063 21.0849 19.0986 21.1377 19.191 21.1905C19.2965 21.23 19.402 21.2564 19.5075 21.2564H22.1061C22.2775 21.2564 22.4359 21.2301 22.5941 21.1641C22.7524 21.0981 22.8843 21.0058 23.003 20.8739C23.2405 20.6233 23.3592 20.2935 23.3592 19.9506L23.346 19.4757C23.4515 19.3702 23.5438 19.2515 23.5966 19.1196C23.6494 18.9877 23.6889 18.8294 23.6889 18.6843V15.4922C23.6889 15.413 23.6889 15.3339 23.7021 15.2547C23.7417 14.859 23.7944 14.2523 23.4251 13.6455C23.346 13.54 23.28 13.4345 23.2141 13.3421C23.5043 13.3553 23.7813 13.263 24.0319 13.1047C24.1242 13.0255 24.2034 12.9332 24.2693 12.8145C24.3221 12.709 24.3617 12.5771 24.3617 12.4584C24.3353 12.2869 24.2825 12.1154 24.1902 11.9571C24.1374 11.812 24.0187 11.6801 23.8736 11.5746ZM11.5405 16.9563C11.5009 16.9959 11.4613 17.0223 11.4218 17.0355C11.369 17.0487 11.3294 17.0618 11.2767 17.0618H11.2635C10.881 17.0618 9.93125 17.0223 9.36406 16.9563C9.13982 16.9168 8.92876 16.8112 8.7441 16.6529C8.19009 16.0989 7.9131 15.6241 7.92629 15.2679C7.93948 15.1228 8.01862 14.9909 8.12415 14.8854C8.36158 14.7007 8.70452 14.8458 9.40362 15.1228C9.94443 15.3471 10.4853 15.5317 11.0524 15.6768L11.1052 15.69C11.5537 15.9011 11.6064 16.4946 11.646 16.6661C11.646 16.7848 11.6064 16.8772 11.5405 16.9563ZM8.95514 12.3528C9.44319 11.3636 9.91805 10.6117 10.3929 10.3215C11.1184 9.88621 17.8455 9.7675 19.402 10.3215C19.8769 10.3215 20.7211 11.8516 20.9585 12.3528C21.5784 14.094 8.22966 13.8434 8.95514 12.3528ZM21.2223 16.6661C21.0508 16.8244 20.8398 16.9431 20.6024 16.9695C20.0484 17.0355 19.0855 17.0619 18.7029 17.075H18.6897C18.637 17.075 18.5842 17.0618 18.5446 17.0487C18.5051 17.0355 18.4523 16.9959 18.4259 16.9695C18.3468 16.8904 18.3072 16.7849 18.3204 16.6793C18.3204 16.4947 18.3863 15.9011 18.848 15.69L18.9008 15.6768C19.4548 15.5317 20.0088 15.3471 20.5496 15.1228C21.2355 14.859 21.5916 14.7139 21.8555 14.9118C21.9082 14.9514 21.961 15.0173 22.0006 15.0833C22.0401 15.1492 22.0533 15.2152 22.0533 15.2943C22.0533 15.6505 21.7895 16.1253 21.2223 16.6661Z" fill="#CEDFEC"/>
<path fill-rule="evenodd" clip-rule="evenodd" d="M24.177 1.035C24.306 1.1306 24.4312 1.23849 24.5519 1.35916C25.9406 2.74785 25.6347 4.70328 24.4248 5.93044L24.42 5.93529L22.6525 7.7028C22.5213 7.83399 22.3813 7.95473 22.2344 8.06404C23.4804 9.02088 25.2788 8.9292 26.419 7.78899L28.78 5.42789C30.02 4.18798 30.02 2.16984 28.78 0.92993C27.5401 -0.309977 25.522 -0.309977 24.2821 0.92993L24.177 1.035Z" fill="#CEDFEC"/>
<path d="M18.848 3.9506L20.6155 2.18307C21.552 1.24654 22.937 1.10145 23.8735 2.03798C24.8101 2.9745 24.665 4.31992 23.7416 5.25645L21.9741 7.02398C21.0376 7.9605 19.6658 8.10561 18.7424 7.18227C17.8059 6.24575 17.9246 4.88712 18.848 3.9506Z" fill="#CEDFEC"/>
</svg>
